<svg width="4" height="13" viewBox="0 0 4 13" fill="none" xmlns="http://www.w3.org/2000/svg">
<g id="Group 6">
<g id="Vector">
<path d="M2.33333 3.33333C3.25381 3.33333 4 2.58714 4 1.66667C4 0.746192 3.25381 -4.02352e-08 2.33333 0C1.41286 4.02352e-08 0.666667 0.746192 0.666667 1.66667C0.666667 2.58714 1.41286 3.33333 2.33333 3.33333Z" fill="#1C4980"/>
<path d="M2.33333 8C3.25381 8 4 7.25381 4 6.33333C4 5.41286 3.25381 4.66667 2.33333 4.66667C1.41286 4.66667 0.666667 5.41286 0.666667 6.33333C0.666667 7.25381 1.41286 8 2.33333 8Z" fill="#1C4980"/>
<path d="M2.33333 12.6667C3.25381 12.6667 4 11.9205 4 11C4 10.0795 3.25381 9.33333 2.33333 9.33333C1.41286 9.33333 0.666667 10.0795 0.666667 11C0.666667 11.9205 1.41286 12.6667 2.33333 12.6667Z" fill="#1C4980"/>
</g>
</g>
</svg>
